<svg width="19" height="19" viewBox="0 0 19 19" fill="none" xmlns="http://www.w3.org/2000/svg">
<g id="Star 5">
<path fill-rule="evenodd" clip-rule="evenodd" d="M3.48499 17.4062C3.18564 18.3275 4.24012 19.0936 5.02384 18.5242L8.24028 16.1873V2.7709L7.11771 6.22581C6.98383 6.63784 6.59988 6.9168 6.16665 6.9168H1.25237C0.283643 6.9168 -0.119132 8.15641 0.664582 8.72581L4.64032 11.6144C4.99081 11.869 5.13747 12.3204 5.00359 12.7324L3.48499 17.4062Z" fill="#F3A218"/>
<path d="M13.0081 6.9168C12.5748 6.9168 12.1909 6.63784 12.057 6.22581L10.5384 1.55205C10.2391 0.63074 8.93566 0.630741 8.6363 1.55205L8.24028 2.7709V16.1873L8.99957 15.6356C9.35006 15.381 9.82466 15.381 10.1751 15.6356L14.1509 18.5242C14.9346 19.0936 15.9891 18.3275 15.6897 17.4062L14.1711 12.7324C14.0373 12.3204 14.1839 11.869 14.5344 11.6144L18.5101 8.72581C19.2939 8.15641 18.8911 6.9168 17.9224 6.9168H13.0081Z" fill="none"/>
</g>
</svg>
