<svg width="20" height="19" viewBox="0 0 20 19" fill="none" xmlns="http://www.w3.org/2000/svg">
<path id="Star 1" d="M9.22363 1.55205C9.52298 0.630741 10.8264 0.63074 11.1257 1.55205L12.6443 6.22581C12.7782 6.63784 13.1622 6.9168 13.5954 6.9168H18.5097C19.4784 6.9168 19.8812 8.15641 19.0975 8.72581L15.1217 11.6144C14.7712 11.869 14.6246 12.3204 14.7585 12.7324L16.277 17.4062C16.5764 18.3275 15.5219 19.0936 14.7382 18.5242L10.7625 15.6356C10.412 15.381 9.93738 15.381 9.5869 15.6356L5.61116 18.5242C4.82745 19.0936 3.77296 18.3275 4.07232 17.4062L5.59091 12.7324C5.72479 12.3204 5.57813 11.869 5.22764 11.6144L1.2519 8.72581C0.46819 8.15641 0.870965 6.9168 1.83969 6.9168H6.75397C7.1872 6.9168 7.57115 6.63784 7.70503 6.22581L9.22363 1.55205Z" fill="#F3A218"/>
</svg>
