<svg width="64" height="64" viewBox="0 0 64 64" fill="none" xmlns="http://www.w3.org/2000/svg">
<path d="M16.8257 18.7832C11.6305 13.3651 21.4879 6.76444 19.3846 2.46094C25.9464 6.92921 25.9367 14.819 19.2489 19.0837C18.4832 19.578 17.4558 19.4423 16.8257 18.7832Z" fill="#0A9396"/>
<path d="M27.4973 12.3864C26.4796 4.94254 38.3336 5.39809 39.1575 0.6875C41.8423 8.16047 37.1996 14.5382 29.2808 14.0535C28.3697 13.9954 27.6233 13.2975 27.4973 12.3864Z" fill="#0A9396"/>
<path d="M39.8941 13.4891C43.4416 6.8691 52.7659 14.2064 56.2067 10.8818C53.9871 18.5002 46.4851 20.933 40.3594 15.8832C39.6518 15.3016 39.458 14.2936 39.8941 13.4891Z" fill="#0A9396"/>
<path d="M49.2669 21.6674C56.0323 18.401 59.2599 29.8092 63.9996 29.1501C57.7188 34.006 50.2264 31.5635 48.2395 23.8773C48.0068 22.9953 48.4527 22.0648 49.2669 21.6674Z" fill="#0A9396"/>
<path d="M52.0486 33.799C59.4344 35.1366 55.3441 46.2637 59.57 48.5026C51.6318 48.7449 47.0085 42.3575 49.9163 34.9718C50.2555 34.1189 51.1472 33.6245 52.0486 33.7893V33.799Z" fill="#0A9396"/>
<path d="M47.1734 45.2388C52.3686 50.6569 42.5113 57.2575 44.6146 61.561C38.0527 57.0928 38.0624 49.203 44.7503 44.9383C45.516 44.444 46.5434 44.5797 47.1734 45.2388Z" fill="#0A9396"/>
<path d="M36.5016 51.6305C37.5194 59.0744 25.6653 58.6189 24.8415 63.3295C22.1566 55.8565 26.7994 49.4788 34.7182 49.9634C35.6293 50.0216 36.3756 50.7194 36.5016 51.6305Z" fill="#0A9396"/>
<path d="M24.1049 50.5303C20.5575 57.1504 11.2332 49.8131 7.79236 53.1376C10.012 45.5193 17.514 43.0865 23.6397 48.1363C24.3473 48.7178 24.5411 49.7259 24.1049 50.5303Z" fill="#0A9396"/>
<path d="M14.7322 42.3545C7.9668 45.6209 4.73918 34.2031 -0.000488281 34.8719C6.28029 30.0159 13.7726 32.4584 15.7596 40.1446C15.9922 41.0266 15.5464 41.9571 14.7322 42.3545Z" fill="#0A9396"/>
<path d="M11.9506 30.2259C4.56489 28.8883 8.65516 17.7613 4.4292 15.5223C12.3674 15.28 16.9908 21.6674 14.083 29.0531C13.7438 29.9061 12.852 30.4004 11.9506 30.2356V30.2259Z" fill="#0A9396"/>
<path d="M32.0044 45.5845C39.4987 45.5845 45.574 39.5092 45.574 32.0149C45.574 24.5206 39.4987 18.4453 32.0044 18.4453C24.5101 18.4453 18.4348 24.5206 18.4348 32.0149C18.4348 39.5092 24.5101 45.5845 32.0044 45.5845Z" fill="#0A9396"/>
</svg>
