<svg width="256" height="64" viewBox="0 0 256 64" fill="none" xmlns="http://www.w3.org/2000/svg">
<g clip-path="url(#clip0_11_6)">
<path d="M16.8257 18.7832C11.6305 13.3651 21.4879 6.76444 19.3846 2.46094C25.9464 6.92921 25.9367 14.819 19.2489 19.0837C18.4832 19.578 17.4558 19.4423 16.8257 18.7832Z" fill="#0A9396"/>
<path d="M27.4973 12.3864C26.4796 4.94254 38.3336 5.39809 39.1575 0.6875C41.8423 8.16047 37.1996 14.5382 29.2808 14.0535C28.3697 13.9954 27.6233 13.2975 27.4973 12.3864Z" fill="#0A9396"/>
<path d="M39.8941 13.4891C43.4416 6.8691 52.7659 14.2064 56.2067 10.8818C53.9871 18.5002 46.4851 20.933 40.3594 15.8832C39.6518 15.3016 39.458 14.2936 39.8941 13.4891Z" fill="#0A9396"/>
<path d="M49.2669 21.6674C56.0323 18.401 59.2599 29.8092 63.9996 29.1501C57.7188 34.006 50.2264 31.5635 48.2395 23.8773C48.0068 22.9953 48.4527 22.0648 49.2669 21.6674Z" fill="#0A9396"/>
<path d="M52.0486 33.799C59.4344 35.1366 55.3441 46.2637 59.57 48.5026C51.6318 48.7449 47.0085 42.3575 49.9163 34.9718C50.2555 34.1189 51.1472 33.6245 52.0486 33.7893V33.799Z" fill="#0A9396"/>
<path d="M47.1734 45.2388C52.3686 50.6569 42.5113 57.2575 44.6146 61.561C38.0527 57.0928 38.0624 49.203 44.7503 44.9383C45.516 44.444 46.5434 44.5797 47.1734 45.2388Z" fill="#0A9396"/>
<path d="M36.5016 51.6305C37.5194 59.0744 25.6653 58.6189 24.8415 63.3295C22.1566 55.8565 26.7994 49.4788 34.7182 49.9634C35.6293 50.0216 36.3756 50.7194 36.5016 51.6305Z" fill="#0A9396"/>
<path d="M24.1049 50.5303C20.5575 57.1504 11.2332 49.8131 7.79236 53.1376C10.012 45.5193 17.514 43.0865 23.6397 48.1363C24.3473 48.7178 24.5411 49.7259 24.1049 50.5303Z" fill="#0A9396"/>
<path d="M14.7322 42.3545C7.9668 45.6209 4.73918 34.2031 -0.000488281 34.8719C6.28029 30.0159 13.7726 32.4584 15.7596 40.1446C15.9922 41.0266 15.5464 41.9571 14.7322 42.3545Z" fill="#0A9396"/>
<path d="M11.9506 30.2259C4.56489 28.8883 8.65516 17.7613 4.4292 15.5223C12.3674 15.28 16.9908 21.6674 14.083 29.0531C13.7438 29.9061 12.852 30.4004 11.9506 30.2356V30.2259Z" fill="#0A9396"/>
<path d="M32.0044 45.5845C39.4987 45.5845 45.574 39.5092 45.574 32.0149C45.574 24.5206 39.4987 18.4453 32.0044 18.4453C24.5101 18.4453 18.4348 24.5206 18.4348 32.0149C18.4348 39.5092 24.5101 45.5845 32.0044 45.5845Z" fill="#0A9396"/>
<path d="M98.5923 41.5743V45.9651H77.4335V17.75H98.0302V22.1504H82.6675V29.478H96.2952V33.7912H82.6675V41.5743H98.5923Z" fill="#0A9396"/>
<path d="M118.947 38.9552L122.814 41.2039C121.981 42.8225 120.769 44.0632 119.17 44.9355C117.57 45.8078 115.719 46.244 113.626 46.244C111.367 46.244 109.361 45.7691 107.597 44.8192C105.842 43.8596 104.466 42.5511 103.468 40.884C102.469 39.2169 101.975 37.3269 101.975 35.2042C101.975 33.0815 102.469 31.1527 103.468 29.4953C104.466 27.8475 105.842 26.5487 107.597 25.6085C109.361 24.6684 111.367 24.2031 113.626 24.2031C115.719 24.2031 117.57 24.6199 119.17 25.4729C120.769 26.3161 121.981 27.5568 122.814 29.1948L118.947 31.4532C118.297 30.4354 117.512 29.6794 116.591 29.1948C115.661 28.7102 114.663 28.4679 113.587 28.4679C112.346 28.4679 111.231 28.7392 110.243 29.282C109.245 29.8151 108.469 30.5905 107.897 31.5986C107.335 32.6066 107.054 33.8085 107.054 35.2042C107.054 36.5999 107.335 37.8018 107.897 38.8098C108.469 39.8178 109.245 40.5932 110.243 41.1263C111.231 41.6691 112.346 41.9308 113.587 41.9308C114.663 41.9308 115.661 41.6885 116.591 41.2039C117.512 40.7289 118.297 39.9729 118.947 38.9552Z" fill="#0A9396"/>
<path d="M146.532 29.4759C145.553 27.8378 144.196 26.5487 142.461 25.6085C140.726 24.6684 138.749 24.2031 136.519 24.2031C134.29 24.2031 132.352 24.6684 130.636 25.6085C128.911 26.5487 127.554 27.8475 126.565 29.4953C125.567 31.1527 125.072 33.0524 125.072 35.2042C125.072 37.3559 125.567 39.2169 126.565 40.884C127.554 42.5511 128.911 43.8596 130.636 44.8192C132.352 45.7691 134.309 46.244 136.519 46.244C138.729 46.244 140.726 45.7691 142.461 44.8192C144.196 43.8596 145.553 42.5511 146.532 40.884C147.511 39.2169 148.005 37.3269 148.005 35.2042C148.005 33.0815 147.511 31.1139 146.532 29.4759ZM142.102 38.7904C141.55 39.8082 140.794 40.5932 139.824 41.1263C138.855 41.6691 137.75 41.9308 136.519 41.9308C135.288 41.9308 134.222 41.6691 133.272 41.1263C132.322 40.5932 131.557 39.8082 130.995 38.7904C130.432 37.7727 130.151 36.5708 130.151 35.2042C130.151 33.8375 130.432 32.6066 130.995 31.5986C131.557 30.5905 132.322 29.8151 133.272 29.282C134.222 28.7392 135.317 28.4679 136.558 28.4679C137.799 28.4679 138.855 28.7392 139.824 29.282C140.794 29.8151 141.55 30.5905 142.102 31.5986C142.655 32.6066 142.926 33.8085 142.926 35.2042C142.926 36.5999 142.655 37.7727 142.102 38.7904Z" fill="#0A9396"/>
<path d="M185.806 24.4531L177.868 45.9706H173.031L167.477 31.141L161.826 45.9706H156.99L149.09 24.4531H153.849L159.52 40.3489L165.451 24.4531H169.687L175.474 40.3974L181.338 24.4531H185.806Z" fill="#0A9396"/>
<path d="M204.048 26.4324C202.342 24.9495 199.928 24.2031 196.807 24.2031C195.092 24.2031 193.434 24.4261 191.835 24.8622C190.236 25.3081 188.859 25.9769 187.706 26.8589L189.683 30.5324C190.488 29.8539 191.476 29.3305 192.639 28.9525C193.812 28.5842 194.995 28.3903 196.206 28.3903C198.009 28.3903 199.347 28.7974 200.238 29.6213C201.13 30.4451 201.566 31.5889 201.566 33.0621V33.3917H196.003C193.832 33.3917 192.087 33.6728 190.769 34.2349C189.451 34.7971 188.501 35.5628 187.929 36.5321C187.347 37.5013 187.057 38.5869 187.057 39.7985C187.057 41.01 187.386 42.1441 188.045 43.123C188.704 44.102 189.635 44.8677 190.846 45.4201C192.058 45.9726 193.463 46.244 195.082 46.244C196.991 46.244 198.562 45.8951 199.812 45.1972C200.675 44.7223 201.353 44.102 201.847 43.3556V45.9629H206.606V33.3529C206.606 30.2319 205.753 27.9251 204.048 26.4324ZM199.453 41.7273C198.474 42.2991 197.36 42.5802 196.129 42.5802C194.898 42.5802 193.832 42.3088 193.105 41.7757C192.378 41.233 192.019 40.506 192.019 39.5949C192.019 38.7904 192.31 38.112 192.901 37.5595C193.492 37.007 194.646 36.7356 196.371 36.7356H201.566V39.2363C201.14 40.3316 200.432 41.1651 199.453 41.7273Z" fill="#0A9396"/>
<path d="M232.805 24.4531L223.578 45.9706H218.373L209.146 24.4531H214.389L221.058 40.4071L227.969 24.4531H232.805Z" fill="#0A9396"/>
<path d="M254.168 29.4371C253.227 27.77 251.938 26.4809 250.3 25.5698C248.653 24.6587 246.792 24.2031 244.698 24.2031C242.604 24.2031 240.627 24.6684 238.95 25.6085C237.273 26.5487 235.955 27.8475 235.005 29.4953C234.046 31.1527 233.571 33.0524 233.571 35.2042C233.571 37.3559 234.056 39.2169 235.044 40.884C236.023 42.5511 237.409 43.8596 239.193 44.8192C240.976 45.7691 243.07 46.244 245.464 46.244C247.344 46.244 249.011 45.9435 250.475 45.3426C251.938 44.732 253.16 43.8693 254.129 42.7353L251.425 39.6337C250.669 40.4382 249.816 41.0294 248.846 41.4074C247.877 41.7854 246.792 41.9696 245.58 41.9696C244.184 41.9696 242.944 41.7079 241.877 41.1651C240.802 40.632 239.968 39.8663 239.377 38.868C239.008 38.2477 238.747 37.5595 238.611 36.8132H255.496C255.525 36.5708 255.544 36.3188 255.554 36.0474C255.573 35.7857 255.573 35.5434 255.573 35.3205C255.573 33.0621 255.108 31.1042 254.168 29.4371ZM238.563 33.4692C238.679 32.655 238.912 31.9281 239.27 31.269C239.794 30.3191 240.52 29.5728 241.451 29.0397C242.372 28.4969 243.457 28.2352 244.698 28.2352C245.939 28.2352 246.966 28.4969 247.897 29.0397C248.827 29.5728 249.554 30.3094 250.097 31.2496C250.475 31.9184 250.707 32.655 250.804 33.4692H238.563Z" fill="#0A9396"/>
</g>
<defs>
<clipPath id="clip0_11_6">
<rect width="255.574" height="64" fill="white"/>
</clipPath>
</defs>
</svg>
