<svg width="47" height="46" viewBox="0 0 47 46" fill="none" xmlns="http://www.w3.org/2000/svg">
<path id="&#226;&#128;&#156;" d="M40.2188 0.8125L44.8125 6.71875C43.0625 8.34375 41.375 10.8438 39.75 14.2188C38.1875 17.5312 37.3438 21.7188 37.2188 26.7812L46.875 28V45.625H28.125V37.2812C28.125 36.5312 28.1562 34.9688 28.2188 32.5938C28.2812 30.1562 28.3438 28.5312 28.4062 27.7188C28.4688 26.8438 28.5625 25.375 28.6875 23.3125C28.8125 21.25 29 19.75 29.25 18.8125C29.5 17.875 29.8125 16.5625 30.1875 14.875C30.5625 13.1875 31.0312 11.8438 31.5938 10.8438C32.2188 9.84375 32.9062 8.6875 33.6562 7.375C34.4688 6.0625 35.4062 4.90625 36.4688 3.90625C37.5938 2.84375 38.8438 1.8125 40.2188 0.8125ZM12.6562 0.8125L17.25 6.71875C15.5 8.34375 13.8125 10.8438 12.1875 14.2188C10.625 17.5312 9.78125 21.6875 9.65625 26.6875L18.75 28V45.625H0V37.2812C0 33.4688 0.03125 30.5625 0.09375 28.5625C0.15625 26.5625 0.40625 24 0.84375 20.875C1.28125 17.6875 1.90625 15.0938 2.71875 13.0938C3.59375 11.0938 4.84375 8.96875 6.46875 6.71875C8.15625 4.46875 10.2188 2.5 12.6562 0.8125Z" fill="#0A9396"/>
</svg>
