<svg width="100" height="100" viewBox="0 0 100 100" fill="none" xmlns="http://www.w3.org/2000/svg">
<rect width="100" height="100" rx="50" fill="#0A9396" fill-opacity="0.2"/>
<path d="M61.14 73.5C57.66 75.1548 53.8534 76.009 50 76C35.664 76 24 64.336 24 50C24 43.85 26.114 38.042 30 33.384V38H34V26H22V30H27.684C22.7252 35.4794 19.9856 42.6099 20 50C20 66.542 33.458 80 50 80C54.4485 80.0093 58.8426 79.0225 62.86 77.112L61.14 73.5Z" fill="#0A9396"/>
<path d="M64 44C64 48.412 60.412 52 56 52H54.828L59.414 47.414L56.586 44.586L52 49.172V48C52 43.588 55.588 40 60 40H64V44Z" fill="#84C9CA"/>
<path d="M44 60C39.588 60 36 56.412 36 52V48H40C44.412 48 48 51.588 48 56V57.172L43.414 52.586L40.586 55.414L45.172 60H44Z" fill="#84C9CA"/>
<path fill-rule="evenodd" clip-rule="evenodd" d="M60 36C53.68 36 48.498 40.914 48.044 47.12C45.8453 45.1137 42.9765 44.001 40 44H32V52C32 58.618 37.384 64 44 64H48V72H52V56H56C62.616 56 68 50.618 68 44V36H60ZM36 52C36 56.412 39.588 60 44 60H45.172L40.586 55.414L43.414 52.586L48 57.172V56C48 51.588 44.412 48 40 48H36V52ZM56 52C60.412 52 64 48.412 64 44V40H60C55.588 40 52 43.588 52 48V49.172L56.586 44.586L59.414 47.414L54.828 52H56Z" fill="#0A9396"/>
<path d="M80 50.0001C80 33.4581 66.542 20.0001 50 20.0001C45.5515 19.9908 41.1574 20.9776 37.14 22.8881L38.86 26.5001C42.3401 24.8453 46.1466 23.991 50 24.0001C64.336 24.0001 76 35.6641 76 50.0001C76 56.1501 73.886 61.9581 70 66.6161V62.0001H66V74.0001H78V70.0001H72.316C77.2749 64.5206 80.0144 57.3902 80 50.0001Z" fill="#0A9396"/>
</svg>
