<svg width="100" height="100" viewBox="0 0 100 100" fill="none" xmlns="http://www.w3.org/2000/svg">
<rect width="100" height="100" rx="50" fill="#0A9396" fill-opacity="0.2"/>
<path d="M44.2627 22.6562V29.3701H46.46V22.6562H44.2627ZM53.54 22.6562V29.3701H55.7373V22.6562H53.54ZM41.333 31.5674V33.5205H58.667V31.5674H41.333ZM43.2861 35.7178V39.9048L47.1924 45.7642V48.9014H52.8076V45.7642L56.7139 39.9048V35.7178H43.2861ZM48.5107 51.0986C48.352 51.8066 48.1567 52.5024 47.9492 53.186C47.6074 54.3335 47.229 55.4199 47.0581 56.4941C46.4111 56.3843 45.8008 56.3354 45.227 56.3354C44.5801 56.3354 43.9575 56.3965 43.3716 56.5186C43.4204 56.5674 43.4814 56.6284 43.5303 56.6895C44.0186 57.2266 44.3115 57.8491 44.4824 58.5205C45.2026 58.4473 46.0083 58.5083 47.0459 58.728C47.229 59.6313 47.6318 60.4004 48.1201 61.0352C48.7671 61.8774 49.5361 62.5 50.2197 63.0981C50.9033 63.6841 51.4893 64.2456 51.8677 64.8315C52.0752 65.1611 52.2339 65.4907 52.3193 65.8691C52.5391 65.4907 52.8198 65.1367 53.1616 64.8193C53.4302 64.563 53.7231 64.3555 54.0283 64.1846C53.9307 64.0015 53.833 63.8184 53.7231 63.6475C53.125 62.7319 52.3682 62.0483 51.6602 61.438C50.9521 60.8276 50.3052 60.2661 49.8657 59.6924C49.4141 59.1309 49.1699 58.5815 49.1455 57.7881C49.1333 57.1533 49.353 56.2134 49.6704 55.0903C50.4028 54.9927 51.4404 54.895 52.6123 54.895C53.2227 54.895 53.8452 54.9316 54.4556 55.0049C54.4189 54.2603 54.5288 53.5034 54.8828 52.8198C54.1016 52.7222 53.3325 52.6978 52.6123 52.6978C51.7822 52.6978 51.001 52.7466 50.3418 52.8076C50.5005 52.2583 50.6348 51.6846 50.7568 51.0986H48.5107ZM59.7046 52.5513C59.6191 52.5635 59.5337 52.5635 59.4482 52.5635C59.3262 52.5757 59.2041 52.5879 59.0942 52.6001C61.438 53.894 63.0737 55.4688 64.3188 57.1655C62.0117 56.1646 60.7178 54.7363 56.6528 54.6143C56.6406 54.8584 56.6528 55.1392 56.7139 55.4443C56.8726 56.2988 57.3242 57.2266 57.7881 57.7881V57.8003C59.1186 59.3994 62.7563 60.7544 66.04 61.4746C67.749 61.853 69.2871 62.085 70.4224 62.2314C70.105 61.4746 69.7021 60.5591 69.2017 59.5581C68.042 57.2632 66.3574 54.7852 65.0146 54.0161C63.8061 53.3203 62.085 52.7222 60.5469 52.5879C60.2539 52.5635 59.9731 52.5513 59.7046 52.5513ZM38.3545 56.7261H37.793C37.5488 56.7261 37.2925 56.7383 37.0361 56.7627C34.9731 56.9458 32.727 57.7515 31.1035 58.6792C29.2444 59.7534 27.0642 63.0493 25.553 66.0767C24.7644 67.6636 24.1553 69.0918 23.728 70.1538C25.1941 69.9829 27.2827 69.7021 30.0024 69.0918C34.2895 68.1396 39.0503 66.394 40.8691 64.1602C41.5283 63.3667 42.1387 62.0972 42.3462 60.9131C42.4072 60.5835 42.4438 60.2661 42.4438 59.9609C36.5845 60.3271 34.5703 62.4878 31.0669 64.0259C33.0078 61.3525 35.5347 58.8623 39.1602 56.8115C38.9526 56.7749 38.7329 56.7505 38.5132 56.7383C38.4644 56.7261 38.4033 56.7139 38.3545 56.7261ZM57.0435 65.6128C56.0791 65.625 55.2734 65.8691 54.6509 66.4307C54.5776 66.4917 54.5166 66.5771 54.4434 66.6504C58.3496 67.7246 63.2446 69.7754 64.4165 72.2046C61.7676 71.0571 57.8125 69.9463 53.8086 69.2627C53.8696 70.2759 54.248 71.2891 54.7363 71.8262C56.7383 74.1089 62.085 74.9878 66.9434 74.9878C69.7632 74.9878 72.0703 74.7925 73.7793 74.5972C73.0957 73.9624 72.3267 73.2666 71.3623 72.4609C69.0308 70.4834 66.0767 68.3228 64.0625 67.5537C62.3901 66.9189 60.4492 66.1255 58.7158 65.7959C58.2764 65.7104 57.8613 65.6494 57.4707 65.625C57.3242 65.6128 57.1899 65.6128 57.0435 65.6128ZM51.6357 69.6777C51.3428 70.3857 50.9888 71.1304 50.6226 71.9482C49.7681 73.8525 48.9014 76.1719 48.9014 79.2969H51.0986C51.0986 76.5625 51.8188 74.6582 52.6367 72.8516C52.6489 72.8271 52.6611 72.7905 52.6733 72.7661C52.0752 71.8628 51.7334 70.7886 51.6357 69.6777Z" fill="#0A9396"/>
</svg>
