<svg width="100" height="100" viewBox="0 0 100 100" fill="none" xmlns="http://www.w3.org/2000/svg">
<rect width="100" height="100" rx="50" fill="#0A9396" fill-opacity="0.2"/>
<path d="M36.6667 74V68.6667H47.3333V60.4C45.1556 59.9111 43.2116 58.9893 41.5013 57.6347C39.7911 56.28 38.5351 54.5796 37.7333 52.5333C34.4 52.1333 31.6116 50.6782 29.368 48.168C27.1244 45.6578 26.0018 42.7129 26 39.3333V36.6667C26 35.2 26.5227 33.9449 27.568 32.9013C28.6133 31.8578 29.8684 31.3351 31.3333 31.3333H36.6667V26H63.3333V31.3333H68.6667C70.1333 31.3333 71.3893 31.856 72.4347 32.9013C73.48 33.9467 74.0018 35.2018 74 36.6667V39.3333C74 42.7111 72.8773 45.656 70.632 48.168C68.3867 50.68 65.5982 52.1351 62.2667 52.5333C61.4667 54.5778 60.2116 56.2782 58.5013 57.6347C56.7911 58.9911 54.8462 59.9129 52.6667 60.4V68.6667H63.3333V74H36.6667ZM36.6667 46.8V36.6667H31.3333V39.3333C31.3333 41.0222 31.8222 42.5449 32.8 43.9013C33.7778 45.2578 35.0667 46.224 36.6667 46.8ZM63.3333 46.8C64.9333 46.2222 66.2222 45.2551 67.2 43.8987C68.1778 42.5422 68.6667 41.0204 68.6667 39.3333V36.6667H63.3333V46.8Z" fill="#0A9396"/>
</svg>
