<svg width="100" height="100" viewBox="0 0 100 100" fill="none" xmlns="http://www.w3.org/2000/svg">
<rect width="100" height="100" rx="50" fill="#0A9396" fill-opacity="0.2"/>
<path d="M36.6667 35.7786C38.1394 35.7786 39.3333 34.5847 39.3333 33.112C39.3333 31.6392 38.1394 30.4453 36.6667 30.4453C35.1939 30.4453 34 31.6392 34 33.112C34 34.5847 35.1939 35.7786 36.6667 35.7786Z" fill="#0A9396"/>
<path d="M67.7707 44.0599C69.2434 44.0599 70.4373 42.866 70.4373 41.3932C70.4373 39.9205 69.2434 38.7266 67.7707 38.7266C66.2979 38.7266 65.104 39.9205 65.104 41.3932C65.104 42.866 66.2979 44.0599 67.7707 44.0599Z" fill="#0A9396"/>
<path d="M44.6604 62.4505C46.1332 62.4505 47.3271 61.2566 47.3271 59.7839C47.3271 58.3111 46.1332 57.1172 44.6604 57.1172C43.1877 57.1172 41.9938 58.3111 41.9938 59.7839C41.9938 61.2566 43.1877 62.4505 44.6604 62.4505Z" fill="#0A9396"/>
<path d="M33.2027 40.7938C34.0165 40.0767 35.0522 39.6612 36.136 39.6169L36.392 39.6063C37.1403 39.5755 37.8872 39.6956 38.5881 39.9595C39.2891 40.2234 39.9298 40.6256 40.472 41.1423C41.0724 41.7135 41.4724 42.4633 41.6124 43.2801L42.0044 45.5609L31.2658 45.5547L31.4631 44.0552C31.6297 42.7938 32.2477 41.6355 33.2027 40.7947M64.008 49.3956L64.5351 48.9307C65.2376 48.3133 66.1305 47.9553 67.0649 47.9165L67.6649 47.8916C68.3774 47.8625 69.0885 47.977 69.7558 48.2283C70.4232 48.4797 71.0331 48.8628 71.5493 49.3547C72.2027 49.9768 72.6381 50.7928 72.7911 51.6818L73.1644 53.8507L62.4258 53.8436L62.6844 51.8765C62.8111 50.9169 63.2813 50.0349 64.008 49.3956ZM41.7227 67.0472C42.2277 66.6019 42.8704 66.3439 43.5431 66.3165L43.9449 66.3005C44.8481 66.2633 45.7495 66.4082 46.5955 66.7266C47.4415 67.045 48.2148 67.5304 48.8693 68.1538C49.2391 68.5058 49.4853 68.9681 49.5716 69.4712L50.0471 72.2338L39.3084 72.2267L39.4231 71.3583C39.6435 69.6906 40.4603 68.1591 41.7227 67.0472Z" fill="#0A9396"/>
<path d="M36.6667 35.7865C38.1394 35.7865 39.3333 34.5926 39.3333 33.1198C39.3333 31.647 38.1394 30.4531 36.6667 30.4531C35.1939 30.4531 34 31.647 34 33.1198C34 34.5926 35.1939 35.7865 36.6667 35.7865Z" stroke="#0A9396" stroke-width="1.77778" stroke-miterlimit="10"/>
<path d="M31.3333 44.6688C31.3333 44.6688 32.2222 40.8368 34 39.9479C35.7778 39.059 37.5555 39.059 39.3333 39.9479C41.1111 40.8368 42 44.6688 42 44.6688" stroke="#0A9396" stroke-width="1.77778" stroke-linecap="round" stroke-linejoin="round"/>
<path d="M67.7707 44.0677C69.2434 44.0677 70.4373 42.8738 70.4373 41.401C70.4373 39.9283 69.2434 38.7344 67.7707 38.7344C66.2979 38.7344 65.104 39.9283 65.104 41.401C65.104 42.8738 66.2979 44.0677 67.7707 44.0677Z" stroke="#0A9396" stroke-width="1.77778" stroke-miterlimit="10"/>
<path d="M62.4373 52.9657C62.4373 52.9657 63.3262 49.1337 65.104 48.2448C66.8818 47.3559 68.6596 47.3559 70.4373 48.2448C72.2151 49.1337 73.104 52.9648 73.104 52.9648" stroke="#0A9396" stroke-width="1.77778" stroke-linecap="round" stroke-linejoin="round"/>
<path d="M44.6604 62.4583C46.1332 62.4583 47.3271 61.2644 47.3271 59.7917C47.3271 58.3189 46.1332 57.125 44.6604 57.125C43.1877 57.125 41.9938 58.3189 41.9938 59.7917C41.9938 61.2644 43.1877 62.4583 44.6604 62.4583Z" stroke="#0A9396" stroke-width="1.77778" stroke-miterlimit="10"/>
<path d="M39.3271 71.3457C39.3271 71.3457 40.216 67.5137 41.9938 66.6248C43.7715 65.7359 45.5493 65.7359 47.3271 66.6248C49.1049 67.5137 49.9938 71.3448 49.9938 71.3448M64.7129 35.9039C60.9627 31.4799 55.3644 28.6719 49.1111 28.6719C46.6489 28.6719 44.2898 29.1074 42.104 29.9048M53.0515 69.1812C60.352 67.7554 66.2622 62.4461 68.5422 55.4905M28.744 47.3279C28.6921 47.9226 28.6663 48.5193 28.6667 49.1163C28.6667 56.2043 32.2738 62.4497 37.7529 66.1181" stroke="#0A9396" stroke-width="1.77778" stroke-linecap="round" stroke-linejoin="round"/>
</svg>
